<svg width="16" height="16" viewBox="0 0 16 16" fill="none" xmlns="http://www.w3.org/2000/svg">
<rect x="0.25" y="0.25" width="15.5" height="15.5" rx="2.75" fill="#323232" stroke="#828282" stroke-width="0.5"/>
<path d="M10.5896 9.84125C10.8062 9.84125 11.0886 9.95199 11.2863 10.4226C11.3145 10.4872 11.3333 10.5611 11.3333 10.6257C11.3333 11.4009 9.5353 12.1022 8.49037 12.1576C8.41506 12.1576 8.33034 12.1668 8.25503 12.1668C6.70175 12.1668 5.26145 11.3547 4.51776 10.0443C4.16945 9.42597 4 8.74306 4 8.05092C4 7.24804 4.23534 6.44516 4.69662 5.75302C5.05434 5.19931 5.75096 4.47026 6.97475 4.07344C7.28541 3.97192 7.83141 3.8335 8.45272 3.8335C9.0552 3.8335 9.72358 3.9627 10.3072 4.39643C11.1262 4.99629 11.2957 5.65151 11.2957 6.07602C11.2957 6.26059 11.2674 6.39902 11.2392 6.48207C11.0509 7.15575 10.4202 7.67255 9.68592 7.77406C9.51647 7.79252 9.37527 7.81098 9.24347 7.81098C8.5751 7.81098 8.34917 7.53412 8.34917 7.22035C8.34917 6.79584 8.75396 6.2975 9.04578 6.2975C9.08344 6.2975 9.1211 6.30673 9.14934 6.32519C9.22465 6.37133 9.31878 6.38979 9.40351 6.38979C9.43175 6.38979 9.45058 6.38979 9.47882 6.38056C9.71416 6.35288 9.83654 6.19599 9.83654 6.00219C9.83654 5.64228 9.40351 5.15317 8.46213 5.15317C8.16089 5.15317 7.81258 5.19931 7.4172 5.31928C6.58879 5.56845 6.12751 6.14985 5.89217 6.50976C5.58151 6.97118 5.43089 7.50644 5.43089 8.03246C5.43089 8.48466 5.54386 8.93686 5.76979 9.34291C6.25931 10.2012 7.21951 10.7364 8.25503 10.7364C8.31151 10.7364 8.35858 10.7364 8.41506 10.7364C9.76123 10.6626 10.0719 9.99813 10.3731 9.86893C10.4202 9.8597 10.5049 9.84125 10.5896 9.84125Z" fill="white"/>
<rect x="8.5" y="8.5" width="7" height="7" rx="3.5" fill="#EE4852" stroke="#323232"/>
<rect x="10" y="10" width="4" height="4" rx="2" fill="#323232"/>
<path d="M10 10L14 14" stroke="#EE4852"/>
</svg>
