<svg width="32" height="20" viewBox="0 0 32 20" fill="none" xmlns="http://www.w3.org/2000/svg">
<path d="M13.8666 14.8556H11.2744L12.8958 5.17529H15.4879L13.8666 14.8556Z" fill="#00579F"/>
<path d="M23.2634 5.41213C22.7521 5.21626 21.9412 5 20.9384 5C18.3785 5 16.5759 6.31809 16.5648 8.20257C16.5435 9.59294 17.8555 10.3652 18.8367 10.8288C19.8396 11.3025 20.1805 11.6117 20.1805 12.0339C20.1703 12.6825 19.3701 12.9814 18.6238 12.9814C17.5888 12.9814 17.0343 12.8273 16.1916 12.4665L15.8502 12.3118L15.4875 14.4848C16.0955 14.7523 17.2156 14.9896 18.3785 15C21.0985 15 22.8692 13.7023 22.8902 11.6941C22.9006 10.5921 22.2078 9.74774 20.7143 9.05776C19.8077 8.61484 19.2524 8.31618 19.2524 7.86299C19.2631 7.451 19.7221 7.02902 20.7455 7.02902C21.5882 7.00835 22.2074 7.20394 22.6765 7.39967L22.9109 7.50246L23.2634 5.41213Z" fill="#00579F"/>
<path d="M26.7093 11.4262C26.9228 10.8701 27.7443 8.71772 27.7443 8.71772C27.7335 8.73839 27.9573 8.15134 28.0853 7.79095L28.2665 8.62506C28.2665 8.62506 28.7574 10.9422 28.864 11.4262C28.4588 11.4262 27.2213 11.4262 26.7093 11.4262ZM29.9091 5.17529H27.904C27.2857 5.17529 26.8159 5.35022 26.5491 5.97847L22.6987 14.8554H25.4187C25.4187 14.8554 25.8665 13.6606 25.9627 13.4033C26.2611 13.4033 28.9071 13.4033 29.2909 13.4033C29.3653 13.7432 29.6002 14.8554 29.6002 14.8554H32.0004L29.9091 5.17529Z" fill="#00579F"/>
<path d="M9.10944 5.17529L6.5708 11.7763L6.29339 10.4375C5.82405 8.89278 4.3521 7.21444 2.70947 6.37992L5.03478 14.8453H7.77598L11.8505 5.17529H9.10944Z" fill="#00579F"/>
<path d="M4.2133 5.17529H0.0426672L0 5.37089C3.25336 6.1742 5.40799 8.11055 6.29323 10.438L5.38659 5.98901C5.23732 5.37075 4.77861 5.19569 4.2133 5.17529Z" fill="#FAA61A"/>
</svg>
