<svg width="24" height="24" viewBox="0 0 24 24" fill="none" xmlns="http://www.w3.org/2000/svg">
<rect x="0.25" y="0.25" width="23.5" height="23.5" rx="2.75" fill="#323232" stroke="#828282" stroke-width="0.5"/>
<path d="M15.8845 14.7619C16.2092 14.7619 16.6329 14.928 16.9294 15.634C16.9718 15.7309 17 15.8416 17 15.9385C17 17.1013 14.303 18.1533 12.7356 18.2364C12.6226 18.2364 12.4955 18.2502 12.3825 18.2502C10.0526 18.2502 7.89217 17.0321 6.77664 15.0664C6.25417 14.1389 6 13.1146 6 12.0764C6 10.8721 6.35302 9.66774 7.04493 8.62954C7.58151 7.79897 8.62644 6.70539 10.4621 6.11016C10.9281 5.95789 11.7471 5.75024 12.6791 5.75024C13.5828 5.75024 14.5854 5.94404 15.4608 6.59465C16.6893 7.49443 16.9435 8.47727 16.9435 9.11403C16.9435 9.39089 16.9012 9.59853 16.8588 9.72311C16.5764 10.7336 15.6303 11.5088 14.5289 11.6611C14.2747 11.6888 14.0629 11.7165 13.8652 11.7165C12.8626 11.7165 12.5237 11.3012 12.5237 10.8305C12.5237 10.1938 13.1309 9.44626 13.5687 9.44626C13.6252 9.44626 13.6816 9.4601 13.724 9.48779C13.837 9.557 13.9782 9.58468 14.1053 9.58468C14.1476 9.58468 14.1759 9.58468 14.2182 9.57084C14.5712 9.52931 14.7548 9.29399 14.7548 9.00329C14.7548 8.46342 14.1053 7.72976 12.6932 7.72976C12.2413 7.72976 11.7189 7.79897 11.1258 7.97893C9.88318 8.35268 9.19127 9.22477 8.83825 9.76464C8.37227 10.4568 8.14634 11.2597 8.14634 12.0487C8.14634 12.727 8.31579 13.4053 8.65469 14.0144C9.38896 15.3017 10.8293 16.1046 12.3825 16.1046C12.4673 16.1046 12.5379 16.1046 12.6226 16.1046C14.6418 15.9939 15.1078 14.9972 15.5597 14.8034C15.6303 14.7896 15.7574 14.7619 15.8845 14.7619Z" fill="white"/>
</svg>
