<svg id="eg2ve7ytzhz61" xmlns="http://www.w3.org/2000/svg" xmlns:xlink="http://www.w3.org/1999/xlink" viewBox="0 0 172 22" shape-rendering="geometricPrecision" text-rendering="geometricPrecision"><style><![CDATA[#eg2ve7ytzhz69 {animation: eg2ve7ytzhz69_c_o 1000ms linear infinite alternate forwards}@keyframes eg2ve7ytzhz69_c_o { 0% {opacity: 1} 20% {opacity: 1} 40% {opacity: 0} 100% {opacity: 0} }#eg2ve7ytzhz610 {animation: eg2ve7ytzhz610_c_o 1000ms linear infinite alternate forwards}@keyframes eg2ve7ytzhz610_c_o { 0% {opacity: 0} 10% {opacity: 0} 30% {opacity: 1} 50% {opacity: 0} 100% {opacity: 0} }#eg2ve7ytzhz611 {animation: eg2ve7ytzhz611_c_o 1000ms linear infinite alternate forwards}@keyframes eg2ve7ytzhz611_c_o { 0% {opacity: 0} 50% {opacity: 0} 70% {opacity: 1} 90% {opacity: 0} 100% {opacity: 0} }#eg2ve7ytzhz612 {animation: eg2ve7ytzhz612_c_o 1000ms linear infinite alternate forwards}@keyframes eg2ve7ytzhz612_c_o { 0% {opacity: 0} 60% {opacity: 0} 80% {opacity: 1} 100% {opacity: 1} }#eg2ve7ytzhz613 {animation: eg2ve7ytzhz613_c_o 1000ms linear infinite alternate forwards}@keyframes eg2ve7ytzhz613_c_o { 0% {opacity: 0} 20% {opacity: 0} 40% {opacity: 1} 60% {opacity: 0} 100% {opacity: 0} }#eg2ve7ytzhz614 {animation: eg2ve7ytzhz614_c_o 1000ms linear infinite alternate forwards}@keyframes eg2ve7ytzhz614_c_o { 0% {opacity: 0} 30% {opacity: 0} 50% {opacity: 1} 70% {opacity: 0} 100% {opacity: 0} }#eg2ve7ytzhz615 {animation: eg2ve7ytzhz615_c_o 1000ms linear infinite alternate forwards}@keyframes eg2ve7ytzhz615_c_o { 0% {opacity: 0} 40% {opacity: 0} 60% {opacity: 1} 80% {opacity: 0} 100% {opacity: 0} }]]></style><circle id="eg2ve7ytzhz62" r="2" transform="matrix(1 0 0 1 36 11)" fill="rgb(234,234,234)" stroke="none" stroke-width="1"/><circle id="eg2ve7ytzhz63" r="2" transform="matrix(1 0 0 1 61 11)" fill="rgb(234,234,234)" stroke="none" stroke-width="1"/><circle id="eg2ve7ytzhz64" r="2" transform="matrix(1 0 0 1 86 11)" fill="rgb(234,234,234)" stroke="none" stroke-width="1"/><circle id="eg2ve7ytzhz65" r="2" transform="matrix(1 0 0 1 111 11)" fill="rgb(234,234,234)" stroke="none" stroke-width="1"/><circle id="eg2ve7ytzhz66" r="2" transform="matrix(1 0 0 1 136 11)" fill="rgb(234,234,234)" stroke="none" stroke-width="1"/><circle id="eg2ve7ytzhz67" r="2" transform="matrix(1 0 0 1 161 11)" fill="rgb(234,234,234)" stroke="none" stroke-width="1"/><circle id="eg2ve7ytzhz68" r="2" transform="matrix(1 0 0 1 11 11)" fill="rgb(234,234,234)" stroke="none" stroke-width="1"/><circle id="eg2ve7ytzhz69" r="2" transform="matrix(1 0 0 1 11 11)" fill="rgb(143,148,159)" stroke="none" stroke-width="1"/><circle id="eg2ve7ytzhz610" r="2" transform="matrix(1 0 0 1 36 11)" opacity="0" fill="rgb(143,148,159)" stroke="none" stroke-width="1"/><circle id="eg2ve7ytzhz611" r="2" transform="matrix(1 0 0 1 136 11)" opacity="0" fill="rgb(143,148,159)" stroke="none" stroke-width="1"/><circle id="eg2ve7ytzhz612" r="2" transform="matrix(1 0 0 1 161 11)" opacity="0" fill="rgb(143,148,159)" stroke="none" stroke-width="1"/><circle id="eg2ve7ytzhz613" r="2" transform="matrix(1 0 0 1 61 11)" opacity="0" fill="rgb(143,148,159)" stroke="none" stroke-width="1"/><circle id="eg2ve7ytzhz614" r="2" transform="matrix(1 0 0 1 86 11)" opacity="0" fill="rgb(143,148,159)" stroke="none" stroke-width="1"/><circle id="eg2ve7ytzhz615" r="2" transform="matrix(1 0 0 1 111 11)" opacity="0" fill="rgb(143,148,159)" stroke="none" stroke-width="1"/></svg>