<svg width="16" height="16" viewBox="0 0 16 16" fill="none" xmlns="http://www.w3.org/2000/svg">
<path d="M4.86671 7.26667C3.35337 6.87333 2.86671 6.46667 2.86671 5.83333C2.86671 5.10667 3.54004 4.6 4.66671 4.6C5.61337 4.6 6.08671 4.96 6.26004 5.53333C6.34004 5.8 6.56004 6 6.84004 6H7.04004C7.48004 6 7.79337 5.56667 7.64004 5.15333C7.36004 4.36667 6.70671 3.71333 5.66671 3.46V3C5.66671 2.44667 5.22004 2 4.66671 2C4.11337 2 3.66671 2.44667 3.66671 3V3.44C2.37337 3.72 1.33337 4.56 1.33337 5.84667C1.33337 7.38667 2.60671 8.15333 4.46671 8.6C6.13337 9 6.46671 9.58667 6.46671 10.2067C6.46671 10.6667 6.14004 11.4 4.66671 11.4C3.56671 11.4 3.00004 11.0067 2.78004 10.4467C2.68004 10.1867 2.45337 10 2.18004 10H1.99337C1.54671 10 1.23337 10.4533 1.40004 10.8667C1.78004 11.7933 2.66671 12.34 3.66671 12.5533V13C3.66671 13.5533 4.11337 14 4.66671 14C5.22004 14 5.66671 13.5533 5.66671 13V12.5667C6.96671 12.32 8.00004 11.5667 8.00004 10.2C8.00004 8.30667 6.38004 7.66 4.86671 7.26667Z" fill="#40C28D"/>
<rect x="8.88879" y="6.3111" width="1.15557" height="3.4667" rx="0.577783" fill="#40C28D"/>
<rect x="11.2" y="5.15558" width="1.15557" height="5.77783" rx="0.577784" fill="#40C28D"/>
<rect x="13.511" y="4" width="1.15557" height="8.08896" rx="0.577784" fill="#40C28D"/>
</svg>
