<svg xmlns="http://www.w3.org/2000/svg" width="24" height="24" viewBox="0 0 24 24">
  <path id="cancel" d="M108,120a12,12,0,1,1,12-12A12,12,0,0,1,108,120Zm5.5-15.5a.578.578,0,0,0,0-.817l-1.226-1.225a.578.578,0,0,0-.817,0l-3.472,3.472-3.472-3.472a.578.578,0,0,0-.817,0l-1.226,1.225a.578.578,0,0,0,0,.817l3.473,3.473-3.473,3.471a.578.578,0,0,0,0,.817l1.226,1.226a.578.578,0,0,0,.817,0l3.472-3.473,3.472,3.473a.578.578,0,0,0,.817,0l1.226-1.226a.578.578,0,0,0,0-.817l-3.473-3.471Z" transform="translate(-96 -96)" fill="#9a3e3e"/>
</svg>
